#!OML:ASF C:\ViconDB\ViconDB\414\Spring2016\041811\Spring2016.ASF
:FULLY-SPECIFIED
:DEGREES
185
root 11.0897 17.8132 18.788 -7.49575 -86.2599 7.97611
lowerback 0.877412 -0.865641 -5.21946
upperback 0.158149 -1.21073 -0.340224
thorax -0.229093 -0.605457 2.58697
lowerneck 7.40967 -12.3508 -28.3592
upperneck 14.5094 -24.1114 28.193
head 10.694 -12.8119 12.3008
rclavicle -2.33945e-014 3.18055e-015
rhumerus -2.53679 -25.0557 -2.0802
rradius 67.4997
rwrist 17.71
rhand -55.6897 -21.9257
rfingers 7.12502
rthumb -28.0397 -49.8505
lclavicle -2.33945e-014 3.18055e-015
lhumerus -11.1562 9.7211 2.15704
lradius 44.5953
lwrist 5.98265
lhand -44.9941 36.4181
lfingers 7.12502
lthumb -17.778 65.6255
rfemur 166.444 22.2138 -178.909
rtibia 31.5818
rfoot -2.59224 -45.0246
rtoes -29.9962
lfemur -11.7394 -9.39135 -10.6906
ltibia 38.0419
lfoot -30.9363 10.1373
ltoes -15.0828
186
root 11.0918 17.8135 18.7875 -7.35344 -86.2502 7.83993
lowerback 0.878185 -0.863892 -5.24194
upperback 0.156217 -1.20863 -0.330225
thorax -0.231004 -0.604289 2.60987
lowerneck 7.47991 -12.3139 -28.3863
upperneck 14.4306 -24.0789 28.2824
head 10.6613 -12.8046 12.356
rclavicle 5.83309e-015 1.86858e-014
rhumerus -2.51871 -25.0704 -2.07952
rradius 67.4946
rwrist 17.7409
rhand -55.6925 -21.9807
rfingers 7.12502
rthumb -28.0423 -49.9051
lclavicle 5.83309e-015 1.86858e-014
lhumerus -11.2019 9.69361 2.15506
lradius 44.6174
lwrist 5.98974
lhand -44.981 36.6048
lfingers 7.12502
lthumb -17.7654 65.8133
rfemur 166.451 22.2199 -178.894
rtibia 31.5907
rfoot -2.63791 -45.0349
rtoes -30.0516
lfemur -11.7618 -9.41765 -10.6794
ltibia 38.0448
lfoot -30.9253 10.1515
ltoes -15.05
187
root 11.0943 17.8138 18.7876 -7.61183 -86.2348 8.09404
lowerback 0.888449 -0.860034 -5.28944
upperback 0.160476 -1.20442 -0.320358
thorax -0.23154 -0.602229 2.64672
lowerneck 7.45985 -12.3143 -28.3813
upperneck 14.4798 -24.0767 28.2444
head 10.6743 -12.8018 12.34
rclavicle -1.06536e-014 -8.34896e-015
rhumerus -2.51194 -25.0827 -2.05112
rradius 67.4999
rwrist 17.7718
rhand -55.7221 -22.399
rfingers 7.12502
rthumb -28.0706 -50.3187
lclavicle -1.06536e-014 -8.34896e-015
lhumerus -11.28 9.55608 2.14898
lradius 44.6372
lwrist 6.01019
lhand -45.0207 36.387
lfingers 7.12502
lthumb -17.8036 65.592
rfemur 166.455 22.2854 -178.912
rtibia 31.5834
rfoot -2.7132 -45.0593
rtoes -29.9724
lfemur -11.7702 -9.45087 -10.6988
ltibia 38.0616
lfoot -30.9267 10.1315
ltoes -15.0532
188
root 11.0974 17.8114 18.7873 -7.69647 -86.2207 8.15945
lowerback 0.911186 -0.853963 -5.30616
upperback 0.179959 -1.19749 -0.329517
thorax -0.224696 -0.59937 2.6468
lowerneck 7.48085 -12.3153 -28.362
upperneck 14.4604 -24.093 28.2904
head 10.6749 -12.811 12.3547
rclavicle 1.41758e-014 8.74653e-015
rhumerus -2.5097 -25.138 -2.06534
rradius 67.5069
rwrist 17.8013
rhand -55.7014 -22.3461
rfingers 7.12502
rthumb -28.0508 -50.2691
lclavicle 1.41758e-014 8.74653e-015
lhumerus -11.2653 9.56545 2.16948
lradius 44.7048
lwrist 6.16129
lhand -45.0378 36.6332
lfingers 7.12502
lthumb -17.8201 65.8367
rfemur 166.439 22.3711 -178.922
rtibia 31.5771
rfoot -2.80588 -45.0729
rtoes -30.0268
lfemur -11.7795 -9.42675 -10.7074
ltibia 38.0778
lfoot -30.871 10.1366
ltoes -15.0775
189
root 11.1015 17.8115 18.7871 -7.2587 -86.218 7.70002
lowerback 0.953545 -0.849292 -5.3136
upperback 0.192882 -1.19329 -0.300828
thorax -0.234742 -0.597181 2.68108
lowerneck 7.41469 -12.3096 -28.3679
upperneck 14.5578 -24.0888 28.264
head 10.7175 -12.8052 12.3461
rclavicle 3.67441e-014 9.54166e-015
rhumerus -2.48617 -25.176 -2.06659
rradius 67.5669
rwrist 17.8174
rhand -55.7452 -22.0535
rfingers 7.12502
rthumb -28.0927 -49.9696
lclavicle 3.67441e-014 9.54166e-015
lhumerus -11.3003 9.65274 2.2019
lradius 44.6691
lwrist 6.01909
lhand -45.0012 36.8127
lfingers 7.12502
lthumb -17.7848 66.0195
rfemur 166.433 22.4337 -178.895
rtibia 31.5622
rfoot -2.83093 -45.0911
rtoes -29.9612
lfemur -11.7874 -9.46039 -10.6782
ltibia 38.103
lfoot -30.9085 10.1538
ltoes -15.0873
190
root 11.1054 17.8127 18.788 -7.53704 -86.2078 7.96311
lowerback 1.00179 -0.841791 -5.35289
upperback 0.194932 -1.18679 -0.299437
thorax -0.259427 -0.593361 2.70529
lowerneck 7.36318 -12.32 -28.3465
upperneck 14.6727 -24.1201 28.2344
head 10.7717 -12.8168 12.3252
rclavicle -2.49226e-014 -6.75868e-015
rhumerus -2.50016 -25.2283 -2.06791
rradius 67.6045
rwrist 17.814
rhand -55.7102 -21.6269
rfingers 7.12502
rthumb -28.0592 -49.5486
lclavicle -2.49226e-014 -6.75868e-015
lhumerus -11.2371 9.78556 2.25108
lradius 44.4913
lwrist 5.91908
lhand -45.0243 36.5158
lfingers 7.12502
lthumb -17.807 65.7205
rfemur 166.433 22.5024 -178.923
rtibia 31.5539
rfoot -2.95948 -45.102
rtoes -29.9762
lfemur -11.7949 -9.44819 -10.694
ltibia 38.1267
lfoot -30.9132 10.0859
ltoes -15.0128
191
root 11.1094 17.8128 18.7886 -6.68888 -86.2062 7.11569
lowerback 1.02458 -0.834356 -5.30762
upperback 0.195429 -1.17753 -0.281742
thorax -0.273037 -0.588325 2.69848
lowerneck 7.31573 -12.3135 -28.3077
upperneck 14.8089 -24.1313 28.1996
head 10.8222 -12.8192 12.3065
rclavicle 7.29912e-015 -1.19271e-015
rhumerus -2.48464 -25.3006 -2.1012
rradius 67.6262
rwrist 17.8882
rhand -55.7219 -21.6342
rfingers 7.12502
rthumb -28.0704 -49.554
lclavicle 7.29912e-015 -1.19271e-015
lhumerus -11.2304 9.74525 2.26183
lradius 44.4865
lwrist 6.03424
lhand -45.047 36.4302
lfingers 7.12502
lthumb -17.8288 65.6329
rfemur 166.459 22.5033 -178.86
rtibia 31.5383
rfoot -2.96267 -45.102
rtoes -30.063
lfemur -11.8448 -9.30715 -10.6117
ltibia 38.1596
lfoot -30.8594 9.97913
ltoes -15.0596
192
root 11.1149 17.8114 18.7893 -7.31095 -86.1892 7.71629
lowerback 1.09295 -0.828815 -5.35554
upperback 0.198388 -1.17519 -0.290881
thorax -0.307785 -0.586382 2.71705
lowerneck 7.20131 -12.3013 -28.2427
upperneck 15.0335 -24.1287 28.12
head 10.9008 -12.8095 12.267
rclavicle 1.19084e-014 2.38542e-015
rhumerus -2.49377 -25.3534 -2.10996
rradius 67.6694
rwrist 17.9565
rhand -55.7015 -21.3767
rfingers 7.12502
rthumb -28.0509 -49.2997
lclavicle 1.19084e-014 2.38542e-015
lhumerus -11.3027 9.64402 2.25776
lradius 44.5659
lwrist 6.14613
lhand -45.0495 36.4352
lfingers 7.12502
lthumb -17.8313 65.6377
rfemur 166.458 22.6002 -178.912
rtibia 31.5229
rfoot -3.03989 -45.135
rtoes -29.8575
lfemur -11.8646 -9.34822 -10.6656
ltibia 38.1987
lfoot -30.855 9.98892
ltoes -15.0348
